<?xml version="1.0" encoding="UTF-8"?> <svg xmlns="http://www.w3.org/2000/svg" id="Layer_1" data-name="Layer 1" viewBox="0 0 483.62 105.53"><defs><style>.cls-1{fill:#f36;}.cls-2,.cls-4{fill:#fff;}.cls-3{opacity:0.5;}.cls-4{stroke:#fff;stroke-miterlimit:10;stroke-width:0.2px;}</style></defs><title>Img</title><path class="cls-1" d="M0,93V23.67A3.69,3.69,0,0,1,3.52,20a3.62,3.62,0,0,1,3.64,3.58h0V88.78L63.65,56.15a3.58,3.58,0,0,1,3.58,6.21h0L7.1,97A4.75,4.75,0,0,1,0,93Z"></path><path class="cls-1" d="M15.37,77.79a3.67,3.67,0,0,1-3.52-3.69V4.75A4.76,4.76,0,0,1,16.61,0,4.71,4.71,0,0,1,19,.64L79.08,35.5a3.58,3.58,0,1,1-3.58,6.2h0L19,9V74.21a3.55,3.55,0,0,1-3.52,3.58Z"></path><path class="cls-1" d="M27.48,98.56a3.61,3.61,0,0,1-3.22-1.79,3.56,3.56,0,0,1,1.26-4.86l.06,0L82.19,59.26,25.69,26.63a3.55,3.55,0,0,1-1.48-4.79l.05-.1a3.61,3.61,0,0,1,4.9-1.31L89.4,55.06a4.75,4.75,0,0,1,0,8.22L29.27,98.08A3.64,3.64,0,0,1,27.48,98.56Z"></path><path class="cls-2" d="M118.58,62.16V62c0-10.74,8.89-16.47,21.81-16.47a54,54,0,0,1,15.68,2.18V45.89c0-9.16-5.59-14-15.18-14a31.67,31.67,0,0,0-13.22,2.79,3.81,3.81,0,0,1-1.37.28,3.36,3.36,0,0,1-3.36-3.24,3.48,3.48,0,0,1,2-3,40.18,40.18,0,0,1,16.77-3.47,22.34,22.34,0,0,1,16.49,5.6,20.11,20.11,0,0,1,5.23,14.89v28a3.61,3.61,0,0,1-3.49,3.72h-.17a3.5,3.5,0,0,1-3.66-3.33V69.26A22.37,22.37,0,0,1,137.65,78C128.17,78,118.58,72.62,118.58,62.16Zm37.6-3.94V53.3a53.12,53.12,0,0,0-15-2.18c-9.59,0-14.9,4.14-14.9,10.57v.19c0,6.41,5.9,10.15,12.8,10.15C148.49,72,156.18,66.25,156.18,58.22Z"></path><path class="cls-2" d="M221.68,73.63a3.81,3.81,0,0,1-7.61,0V66.72A22.9,22.9,0,0,1,194.51,77.9c-12.25,0-24.38-9.64-24.38-26.41v-.06c0-16.77,12.13-26.56,24.38-26.56a23,23,0,0,1,19.56,10.88V8.3a3.71,3.71,0,0,1,3.61-3.83h.17a3.77,3.77,0,0,1,3.83,3.71V73.63ZM178,51.32v.19c0,12.05,8.39,19.74,18,19.74a19,19,0,0,0,18.4-19.66v-.27A19,19,0,0,0,196,31.75h-.13C186.06,31.69,178,39,178,51.32Z"></path><path class="cls-2" d="M231.77,28.73a2.28,2.28,0,0,1,2.11-2.45h.26a2.37,2.37,0,0,1,2.46,2.29.49.49,0,0,1,0,.17V37.9c4.34-6.6,10.74-12.41,20.72-12.41A25,25,0,0,1,281.8,50.92c0,.24,0,.47,0,.71v.19c0,16.38-12.33,26.33-24.46,26.33a24.18,24.18,0,0,1-20.6-11.9V90.82a2.32,2.32,0,0,1-2.18,2.45h-.2A2.39,2.39,0,0,1,231.88,91v-.17ZM276.49,52v-.2c0-13.22-9.16-21.72-19.73-21.72a21.08,21.08,0,0,0-20.52,21.61v.19a21,21,0,0,0,20.37,21.61h.15c11,0,19.79-8,19.79-21.49Z"></path><path class="cls-2" d="M289.27,62.36v-.2c0-10.45,9-16.35,22-16.35A60.5,60.5,0,0,1,328,48V45.81c0-10.17-6.2-15.4-16.55-15.4a32.31,32.31,0,0,0-14.31,3.35,2.63,2.63,0,0,1-1.09.31,2.37,2.37,0,0,1-2.26-2.29,2.43,2.43,0,0,1,1.37-2.15,39.08,39.08,0,0,1,16.57-3.75,21.76,21.76,0,0,1,15.88,5.59,19.11,19.11,0,0,1,5.14,14.2V74.91a2.38,2.38,0,0,1-4.75,0h0V68.59a22.79,22.79,0,0,1-19.23,9.56C299.33,78.15,289.27,72.81,289.27,62.36ZM328,58.14V52.41A67,67,0,0,0,311,50.14c-10.65,0-16.55,4.73-16.55,11.74v.2c0,7.3,6.91,11.55,14.6,11.55C319.26,73.63,328,67.31,328,58.14Z"></path><path class="cls-2" d="M344.12,28.73a2.43,2.43,0,1,1,4.83-.52,2.26,2.26,0,0,1,0,.52V41.09C353.28,31.3,362.06,26,369.16,26a2.57,2.57,0,0,1,2.58,2.56,1.93,1.93,0,0,1,0,.24,2.62,2.62,0,0,1-2.57,2.65c-10.65,1-20.21,9-20.21,25.16V74.91a2.35,2.35,0,0,1-2.23,2.46h-.14A2.4,2.4,0,0,1,344.12,75V28.73Z"></path><path class="cls-2" d="M379.28,7a2.36,2.36,0,0,1,2.21-2.49h.14A2.46,2.46,0,0,1,384.12,7V74.91a2.33,2.33,0,0,1-2.18,2.46h-.2A2.4,2.4,0,0,1,379.28,75V7Z"></path><path class="cls-2" d="M394.32,52v-.2A26,26,0,0,1,420,25.49h.28A25.71,25.71,0,0,1,446,51.17v.65a26,26,0,0,1-25.66,26.33h-.28a25.71,25.71,0,0,1-25.75-25.68Zm46.46,0v-.2A21.07,21.07,0,0,0,420.45,30h-.38A20.74,20.74,0,0,0,399.53,51c0,.22,0,.44,0,.67v.19a21.11,21.11,0,0,0,20.39,21.8h.32a20.78,20.78,0,0,0,20.54-21C440.79,52.42,440.79,52.22,440.78,52Z"></path><path class="cls-2" d="M456,28.73a2.36,2.36,0,0,1,2.23-2.46h.12a2.37,2.37,0,0,1,2.48,2.26.67.67,0,0,1,0,.2V41.09C465.16,31.3,473.94,26,481,26a2.58,2.58,0,0,1,2.58,2.56c0,.08,0,.16,0,.24A2.63,2.63,0,0,1,481,31.44c-10.66,1-20.22,9-20.22,25.16V74.91a2.43,2.43,0,1,1-4.83.52,2.26,2.26,0,0,1,0-.52Z"></path><g class="cls-3"><polygon class="cls-2" points="337.3 91.31 337.3 94.2 341.55 94.2 341.55 105.09 344.51 105.09 344.51 94.2 348.76 94.2 348.76 91.31 337.3 91.31"></polygon><path class="cls-2" d="M303.39,99.25a2.77,2.77,0,0,1-2.86,3,2.82,2.82,0,0,1-2.9-3V91.31h-3v8.11a5.58,5.58,0,0,0,5.89,5.77,5.5,5.5,0,0,0,5.86-5.77V91.31h-3Z"></path><path class="cls-2" d="M312.88,99.54h4.49v-2.7h-4.49v-2.3a.56.56,0,0,1,.56-.55h6.44v-2.7H312a2.1,2.1,0,0,0-2.09,2.09V103a2.1,2.1,0,0,0,2.09,2.1h8.29v-2.7h-6.75a.61.61,0,0,1-.61-.61Z"></path><path class="cls-2" d="M274.17,105.13V99.56h5.72v-2.7h-5.72V94.57a.56.56,0,0,1,.56-.56h6.43v-2.7h-7.92a2.1,2.1,0,0,0-2.09,2.1v11.72Z"></path><path class="cls-2" d="M287.74,102.43h5v2.7h-6.51a2.1,2.1,0,0,1-2.09-2.09V91.31h3v10.57a.56.56,0,0,0,.56.55"></path><path class="cls-2" d="M332.05,100.49l-4.9-8.11a2.27,2.27,0,0,0-1.95-1.09h-2.35v13.82h2.91V95.87l4.86,7.87a2.9,2.9,0,0,0,2.46,1.37H335V91.29h-2.9Z"></path><path class="cls-2" d="M400,91.29a2.89,2.89,0,0,0-2.45,1.37L394.87,97l-2.77-4.59a2.27,2.27,0,0,0-2-1.09H387.8v13.82h2.9V95.87l4.13,6.25,1.64-2.48L399,95.91v9.2h2.91V91.29Z"></path><path class="cls-4" d="M256.47,91.27h2.83l6,14h-3.2l-1.28-3.13h-5.9l-1.27,3.13h-3.13Zm3.22,8.21L257.84,95,256,99.48Z"></path><path class="cls-2" d="M355.42,98.3v0A7.15,7.15,0,0,1,362.75,91a7.3,7.3,0,0,1,5.55,2.17l-2,2.27a5.21,5.21,0,0,0-3.6-1.58,4.17,4.17,0,0,0-4.08,4.38v0a4.18,4.18,0,0,0,4.08,4.42,5.07,5.07,0,0,0,3.7-1.65l2,2a7.2,7.2,0,0,1-5.77,2.51A7.09,7.09,0,0,1,355.42,98.3Z"></path><path class="cls-2" d="M370,98.3v0a7.48,7.48,0,0,1,14.95,0v0a7.48,7.48,0,0,1-14.95,0Zm11.72,0v0a4.27,4.27,0,0,0-4.26-4.42,4.2,4.2,0,0,0-4.22,4.38v0a4.27,4.27,0,0,0,4.26,4.42A4.21,4.21,0,0,0,381.69,98.3Z"></path><path class="cls-2" d="M405.37,91.22h5.74c3.36,0,5.39,2,5.39,4.87v0c0,3.25-2.53,4.94-5.69,4.94h-2.35v4.22h-3.09Zm5.54,7.1a2.19,2.19,0,0,0,2.46-2.13v0c0-1.39-1-2.13-2.52-2.13h-2.39v4.3Z"></path><path class="cls-2" d="M422.33,91.12h2.85l6,14.17H428l-1.29-3.15h-5.95l-1.28,3.15H416.3Zm3.26,8.28-1.87-4.56-1.87,4.56Z"></path><path class="cls-2" d="M453.47,99.74l-5.41-8.52h3.62l2.5,4.22a1,1,0,0,0,1.72,0l2.55-4.22H462l-5.41,8.46v5.61h-3.09Z"></path><path class="cls-2" d="M442.9,100.49,438,92.38a2.28,2.28,0,0,0-1.95-1.09h-2.35v13.82h2.9V95.87l4.87,7.87a2.89,2.89,0,0,0,2.45,1.37h1.88V91.29H442.9Z"></path></g></svg> 